<?xml version="1.0" standalone="no"?>
<!DOCTYPE svg PUBLIC "-//W3C//DTD SVG 1.1//EN" "http://www.w3.org/Graphics/SVG/1.1/DTD/svg11.dtd" >
<svg xmlns="http://www.w3.org/2000/svg">
<defs>
  <font id="iconFont" horiz-adv-x="512">
    <font-face font-family="iconFont"
      units-per-em="1001" ascent="1001"
      descent="0" />
    <missing-glyph horiz-adv-x="0" />
    <glyph glyph-name="arrow-icon"
      unicode="&#xE001;"
      horiz-adv-x="1001" d="M-11183.394444444444 2063.1722222222224H2090.9777777777776V-1062.1722222222224H-11183.394444444444V2063.1722222222224zM917.4721111111112 722.9444444444445L500.5 221.0541666666666L82.9161666666667 688.1875L55.6111111111111 664.6083888888888L500.5 166.8333333333333L945.388888888889 699.8102222222221L917.4721111111112 722.9444444444445z" />
    <glyph glyph-name="arrow"
      unicode="&#xE002;"
      horiz-adv-x="625.625" d="M618.1175000000001 883.3824999999999L500.5 1001L0 500.5L500.5 0L618.1175000000001 117.6175L236.0691666666667 500.5L618.1175000000001 883.3824999999999z" />
    <glyph glyph-name="burger-icon"
      unicode="&#xE003;"
      horiz-adv-x="1201.1999999999998" d="M1201.1999999999998 800.8H0V1001H1201.1999999999998zM1201.1999999999998 600.6H0V400.4000000000001H1201.1999999999998zM1201.1999999999998 200.2000000000001H0V0H1201.1999999999998z" />
    <glyph glyph-name="check"
      unicode="&#xE004;"
      horiz-adv-x="1376.375" d="M1266.890625 847.03744125C1266.890625 829.44236375 1258.0943375000002 820.64357375 1249.2955474999999 811.846035L492.6796875 59.6295700000001C479.48275375 46.43263625 466.28582 42.0344924999999 453.08888625 42.0344924999999C435.49380875 42.0344924999999 426.69627 46.43263625 417.8974800000001 59.6295700000001L17.595703125 459.9319724999999C4.398919525 468.72951125 0 481.9264450000001 0 499.52277375C0 512.7197074999999 4.398919525 525.91539 17.595703125 534.7141799999999L118.771027375 635.88900375C127.56869125 644.6865425000001 136.36623 649.0859375 153.96255875 649.0859375C167.1594925 649.0859375 180.35642625 644.6865425000001 193.55336 635.88900375L453.08888625 367.5546875L1077.73666 983.404296875C1086.53419875 992.2021484375 1095.33298875 1001 1112.92806625 1001C1126.125 1001 1139.32193375 992.2021484375 1152.5188675000002 983.404296875L1249.2955474999999 886.62799225C1258.0943375000002 873.43130875 1266.890625 860.234375 1266.890625 847.03744125z" />
    <glyph glyph-name="close"
      unicode="&#xE005;"
      horiz-adv-x="1001" d="M399.3751666666667 500.5L112.8985 786.9766666666667L213.9995 888.1015L500.5 601.6248333333333L786.9766666666666 888.1015L888.1014999999999 787.0004999999999L601.6248333333333 500.5L888.1014999999999 214.0233333333334L787.0005 112.8985000000001L500.5 399.3751666666667L214.0233333333334 112.8985000000001L112.8985 213.9995z" />
    <glyph glyph-name="colon"
      unicode="&#xE006;"
      horiz-adv-x="333.6666666666667" d="M333.6666666666667 1001H0V667.3333333333333H333.6666666666667V1001zM333.6666666666667 333.6666666666667H0V0H333.6666666666667V333.6666666666667z" />
    <glyph glyph-name="crown-icon"
      unicode="&#xE007;"
      horiz-adv-x="1001" d="M0 1001H1001V0H0zM1001 820.2638888888889C837.3921111111111 684.0722777777778 766.4879444444446 623.5673888888889 702.7576111111111 623.5673888888889C600.9892777777778 623.5673888888889 549.2709444444445 776.8316111111111 500.5 945.388888888889C451.8958888888889 777.3877222222222 399.9551111111112 623.623 298.0755555555555 623.623C234.9569444444445 623.623 165.9435555555556 682.1815 0 820.2638888888889C138.4716666666667 527.527 125.125 224.1683888888889 125.125 111.2222222222222H875.875C875.875 182.9049444444444 855.9662222222222 513.7354444444444 1001 820.2638888888889zM298.0755555555556 540.2063333333333C393.7822777777779 540.2063333333333 456.0111111111111 608.608 500.5 697.0296666666667C544.8776666666668 608.5523888888889 607.1065 540.1507222222223 702.7576111111111 540.1507222222223C749.5265555555555 540.1507222222223 794.0154444444445 558.1131111111112 833.1656666666668 583.6386111111111C815.1476666666667 504.1147222222223 804.8040000000001 428.4836111111112 798.9648333333334 361.4722222222222H201.5902777777778A1650.0928888888889 1650.0928888888889 0 0 1 167.8899444444445 583.5273888888889C206.5952777777778 558.2243333333333 251.3066111111111 540.1507222222223 298.0755555555556 540.1507222222223zM208.8197222222222 194.6388888888888C208.7085 219.3858333333333 208.1523888888889 247.4694444444443 206.8733333333333 278.0555555555556H793.5149444444444A2047.7123333333338 2047.7123333333338 0 0 1 791.5129444444444 194.6388888888888H208.8197222222222z" />
    <glyph glyph-name="dollar"
      unicode="&#xE008;"
      horiz-adv-x="1001" d="M0 500.5A500.49999999999994 500.49999999999994 0 0 1 1001 500.5A500.49999999999994 500.49999999999994 0 0 1 0 500.5M582.75035 408.99495C582.75035 428.0913000000001 576.39855 444.1755500000001 563.6904 457.25225C551.18245 470.3244 529.97035 482.1544 500.05865 492.74225C458.4216 506.2329999999999 428.022595 523.7687000000001 408.86482 545.3539C389.90224 567.1456700000001 380.4209500000001 594.7487000000001 380.4209500000001 628.163445C380.4209500000001 662.20063 389.70659 690.115335 408.278325 711.90756C427.045255 733.6993299999999 452.751845 746.670925 485.3985500000001 750.8218899999999V819H529.0921999999999V750.51067C561.9341 745.73681 587.4414 731.105375 605.6232 706.615C624.00065 682.1246249999999 633.1871 648.606595 633.1871 606.06H579.2332C579.2332 635.3237799999999 572.68575 658.56882 559.5863 675.794665C546.48685 693.0209649999999 528.79645 701.6341150000001 506.51055 701.6341150000001C483.2463999999999 701.6341150000001 465.46045 695.1999599999999 453.14269 682.3325600000001C440.8272050000001 669.672185 434.669235 651.927185 434.669235 629.09756C434.669235 607.927775 441.120225 591.01315 454.02266 578.3527750000001C467.1212 565.900335 488.5244 554.485295 518.24045 544.1071999999999C548.15215 533.93795 571.41175 522.6266499999999 588.02835 510.1733C604.8406 497.92925 617.15745 483.6104 624.9789 467.2121999999999C632.99145 450.81855 637 431.6175500000001 637 409.6183C637 374.5469 627.0309500000001 346.3187000000001 607.0883 324.9428000000001C587.3458499999999 303.5668999999999 559.5863 290.90425 523.8142 286.9594000000001V227.5H480.41175V286.9594000000001C444.0527 290.4902 415.51146 304.1857 394.789395 328.0550000000001C374.26298 352.12905 364 384.71615 364 425.8072H418.248285C418.248285 396.9602 425.383595 374.7516500000001 439.654215 359.1861C453.924835 343.62055 474.16005 335.84005 500.3544 335.84005C525.9618 335.84005 546.09555 342.37385 560.7602 355.4505499999999C575.4203 368.52725 582.75035 386.3769 582.75035 408.99495z" />
    <glyph glyph-name="email-icon"
      unicode="&#xE009;"
      horiz-adv-x="1287" d="M1269.125 875.875C1269.125 944.69375 1212.81875 1001 1144 1001H143C74.18125 1001 17.875 944.69375 17.875 875.875V125.125C17.875 56.30625 74.18125 0 143 0H1144C1212.81875 0 1269.125 56.30625 1269.125 125.125zM1144 875.875L643.5 563.0625L143 875.875zM1144 125.125H143V750.75L643.5 437.9375L1144 750.75z" />
    <glyph glyph-name="est-icon"
      unicode="&#xE00A;"
      horiz-adv-x="1001" d="M0 1001H1001V0H0zM1001 820.2638888888889C837.3921111111111 684.0722777777778 766.4879444444446 623.5673888888889 702.7576111111111 623.5673888888889C600.9892777777778 623.5673888888889 549.2709444444445 776.8316111111111 500.5 945.388888888889C451.8958888888889 777.3877222222222 399.9551111111112 623.623 298.0755555555555 623.623C234.9569444444445 623.623 165.9435555555556 682.1815 0 820.2638888888889C138.4716666666667 527.527 125.125 224.1683888888889 125.125 111.2222222222222H875.875C875.875 182.9049444444444 855.9662222222222 513.7354444444444 1001 820.2638888888889zM298.0755555555556 540.2063333333333C393.7822777777779 540.2063333333333 456.0111111111111 608.608 500.5 697.0296666666667C544.8776666666668 608.5523888888889 607.1065 540.1507222222223 702.7576111111111 540.1507222222223C749.5265555555555 540.1507222222223 794.0154444444445 558.1131111111112 833.1656666666668 583.6386111111111C815.1476666666667 504.1147222222223 804.8040000000001 428.4836111111112 798.9648333333334 361.4722222222222H201.5902777777778A1650.0928888888889 1650.0928888888889 0 0 1 167.8899444444445 583.5273888888889C206.5952777777778 558.2243333333333 251.3066111111111 540.1507222222223 298.0755555555556 540.1507222222223zM208.8197222222222 194.6388888888888C208.7085 219.3858333333333 208.1523888888889 247.4694444444443 206.8733333333333 278.0555555555556H793.5149444444444A2047.7123333333338 2047.7123333333338 0 0 1 791.5129444444444 194.6388888888888H208.8197222222222z" />
    <glyph glyph-name="euro"
      unicode="&#xE00B;"
      horiz-adv-x="1001" d="M0 500.5A500.49999999999994 500.49999999999994 0 0 1 1001 500.5A500.49999999999994 500.49999999999994 0 0 1 0 500.5M557.78905 302.44305C576.121 302.44305 593.87055 304.213 610.99675 307.7984L611.86125 300.8232500000001C593.57025 297.4335 575.3293 295.75 557.1247500000001 295.75C506.8882 295.75 469.91035 310.4328499999999 443.346995 337.6646000000001C416.93743 365.17845 401.729055 405.31855 400.48463 461.19255L400.07877 479.4244H400.490545V502.1744V548.00746V570.75746H399.782565L400.474165 588.9638299999999C402.544415 643.4942149999999 418.098135 682.595095 444.5122500000001 709.3354449999999C471.14795 736.3001099999999 507.689 750.75 556.7926 750.75C573.04065 750.75 591.3725999999999 748.92818 611.8703499999999 745.135755L610.95125 737.66693C593.2381 741.47164 575.39755 743.3899200000001 557.4569 743.3899200000001C515.9791 743.3899200000001 481.03965 730.18491 456.07835 701.427545L456.0647 701.41526C431.96062 673.60384 420.6647900000001 635.610885 419.23427 590.5490500000001L418.48898 567.076965H418.889835V548.00746V502.1744V483.4375H418.4211850000001L418.8948400000001 460.2234000000001C419.84579 413.6132 431.071095 374.34215 455.61425 345.55885C480.73025 316.1021500000001 515.91085 302.44305 557.78905 302.44305z" />
    <glyph glyph-name="facebook-icon"
      unicode="&#xE00C;"
      horiz-adv-x="1001" d="M579.281828125 0H391.7194531250001V500.5H266.5944531250001V672.986767578125L391.7194531250001 673.0434648437499L391.516125 774.66060546875C391.516125 915.37930859375 429.673384765625 1001 595.4307734375 1001H733.4358281250001V828.4799960937501H647.187556640625C582.638697265625 828.4799960937501 579.534033203125 804.37779296875 579.534033203125 759.3836249999999L579.2779179687501 673.0434648437499H734.4055468750001L716.1177460937502 500.556697265625L579.406953125 500.5L579.281828125 0z" />
    <glyph glyph-name="google-icon"
      unicode="&#xE00D;"
      horiz-adv-x="1001" d="M291.9583333333334 542.2083333333333V442.1083333333333H457.5404166666667C450.8670833333334 399.1904583333333 407.4904166666668 316.1491666666666 291.9583333333334 316.1491666666666C192.2754166666667 316.1491666666666 110.9441666666667 398.6899583333332 110.9441666666667 500.4999999999999C110.9441666666667 602.2683333333332 192.2754166666667 684.8508333333332 291.9583333333334 684.8508333333332C348.6816666666667 684.8508333333332 386.63625 660.6599999999999 408.3245833333333 639.8058333333332L487.5704166666667 716.1320833333332C436.68625 763.6795833333332 370.7870833333334 792.4583333333333 291.9583333333333 792.4583333333333C130.5470833333333 792.4583333333333 0 661.9112499999999 0 500.4999999999999S130.5470833333333 208.5416666666666 291.9583333333333 208.5416666666666C460.46 208.5416666666666 572.2800416666666 326.9933333333334 572.2800416666666 493.8266666666667C572.2800416666666 513.0125 570.1529166666667 527.6104166666667 567.6504166666667 542.2083333333333H291.9583333333333zM291.9583333333334 542.2083333333333L1001 458.7916666666666H875.875V333.6666666666667H792.4583333333334V458.7916666666666H667.3333333333334V542.2083333333333H792.4583333333334V667.3333333333333H875.875V542.2083333333333H1001V458.7916666666666z" />
    <glyph glyph-name="linkedin-icon"
      unicode="&#xE00E;"
      horiz-adv-x="1001" d="M226.7885297096769 0H21.5058069032253V659.994948516129H226.7885297096769zM125.2508353870963 750.4959397419356C92.8764933870963 750.4959397419356 64.9168842903221 762.2684101290323 41.3718789354834 785.8133831935485C17.8269058709673 809.3583885483872 6.0544354838705 837.3179976451613 6.0544354838705 869.692371935484C6.0544354838705 902.066713935484 17.8269058709673 930.0263230322582 41.3718789354834 953.5713283870969C64.9168842903221 977.116301451613 92.8764933870963 988.8887718387098 125.2508353870963 988.8887718387098C157.6252096774189 988.8887718387098 185.5848187741931 977.116301451613 209.1298241290318 953.5713283870969C232.6747971935479 930.0263230322582 244.4472675806447 902.066713935484 244.4472675806447 869.692371935484C244.4472675806447 837.3179976451613 232.6747971935479 809.3583885483872 209.1298241290318 785.8133831935485C185.5848187741931 762.2684101290323 157.6252096774189 750.4959397419356 125.2508353870963 750.4959397419356zM994.9432073225802 0H789.6604845161285V322.2717885483871C789.6604845161285 375.2479698709677 785.2458161935479 413.5085470645162 776.416447258064 437.0535201290322C760.2292762580639 476.7856641935484 728.5907015483865 496.6517362258065 681.5007877096768 496.6517362258065C634.4108415806446 496.6517362258065 601.300732290322 478.9929983548387 582.1704275483866 443.6755549032258C567.4548234193543 417.1874480967743 560.0970213548381 378.1910713225807 560.0970213548381 326.6864568709679V0H357.0216649999994V659.994948516129H553.4750188709672V569.4939895806451H555.6823530322575C570.3979571612898 598.9251978387097 593.9428979354834 623.2059381935483 626.317272225806 642.3362429354838C661.634715677419 665.881216 702.8384266129028 677.6536863870967 749.9283404516125 677.6536863870967C845.5797995806447 677.6536863870967 912.535817741935 647.4866785483871 950.7963949354834 587.1526951612902C980.227603193548 538.5912144516128 994.9432073225802 463.5416269354839 994.9432073225802 362.0039326129032z" />
    <glyph glyph-name="logo"
      unicode="&#xE00F;"
      horiz-adv-x="3003" d="M296.3917221571429 694.5714285714287C375.6185494285714 694.5714285714287 441.8675751285714 679.2957518285714 495.1407849142857 648.7439407428571C547.958670442857 617.7361333 574.3672179142857 560.7373404285715 574.3672179142857 477.7458543L574.3672179142857 138.4856513857144C574.3672179142857 128.4537131428573 576.9853048142857 119.9038943142858 582.2215623714285 112.8359375000001C587.4578178857143 105.7679806857143 593.2631439428571 102.2340564142859 599.6377162285713 102.2340564142859C605.1016359142857 102.2340564142859 609.9963236714285 103.2600344285715 614.3219265857143 105.3120211000002C618.6475294999999 107.3640098142857 624.7265064857143 101.3220208 633.8330386142857 110.4419642857143L655.6426080285714 92.658163557143C628.3230116428571 60.7383613571431 598.0442468 38.3948340285716 564.8054064714285 25.626913557143C543.8603823714285 17.4189648285716 533.8937175 79.3239876 510.6720618999999 79.3239876C469.2373420428571 79.3239876 489.4287152857143 68.4903137285714 470.3049984285714 92.658163557143C459.3771590571428 106.3380787857143 393.8132892571428 88.3248692857143 388.8046958714285 115.2287033857143C350.1019358571428 76.4689435714286 301.4005320857144 44.3227846285715 252.6805873428572 28.3628835285715C223.0843574142857 18.3309452857144 193.943893 13.3150507285715 165.2583177142857 13.3150507285715C127.010884 13.3150507285715 91.2682832285715 25.5127934285714 58.0294408571429 49.9086424571429C24.7906005285714 74.3044914857144 8.1714285714285 112.2656861857144 8.1714285714285 163.7933664714286C8.1714285714285 226.7209781571429 38.4501934142857 276.6519204428572 99.0086301285714 313.5876907428573C159.5670668428571 350.5234630857143 254.5012367857143 387.6866748857143 383.8139897428571 425.0784435857144L383.8139897428571 526.9933035714287C383.8139897428571 568.4890476571429 375.0490846142857 599.1543966571429 357.5190108285713 618.9902739428571C339.9889370428571 638.8261512285715 308.9133639428571 648.7439407428571 264.2913579428572 648.7439407428571C239.2483951 648.7439407428571 218.6451757285714 644.0700409000001 202.4810808428571 634.7220982142858C186.3169859571429 625.3741555285715 178.2350610857143 613.6324051 178.2350610857143 599.4964914714286C178.2350610857143 594.0245270142857 179.1457014285714 589.4646226857144 180.9670066285715 585.8166457C182.3329875714286 583.0806614285715 184.2111863428571 580.2164633571429 186.6016397142857 577.2239983714286L197.3586819285714 564.6128835285715C203.7332542142857 556.8609311571429 208.8556020571429 548.3111123285714 212.7258786714285 538.9631696428571C216.5961532428571 529.6152269571428 218.5312639714286 519.6974374428571 218.5312639714286 509.2095028428571C218.5312639714286 482.7616671428572 209.7663568 462.3560982857143 192.2362830142857 447.9921875C174.7062092285714 433.6282767142858 154.3306499428572 426.4464285714287 131.1089943428571 426.4464285714287C104.2447242571429 426.4464285714287 81.3649060714286 434.4262596142858 62.4688533857143 450.3861607142858C43.5728007 466.3460618142857 34.1249153142857 489.3735744857144 34.1249153142857 519.4693871714286C34.1249153142857 573.2770553714286 59.3951623571429 615.9121519571429 109.9364143428571 647.375955757143C160.4776663285714 678.8397616 222.6288125285714 694.5714285714287 296.3917221571429 694.5714285714287zM381.7650305857143 376.5149878285715C344.4282494714286 367.3950443428572 311.6452277714285 353.0313480571429 283.4149787857143 333.4234699714285C235.6056866428571 300.1356746142858 211.7013980714286 257.7285731428572 211.7013980714286 206.2008928571429C211.7013980714286 175.6490817714287 218.6450245571428 152.5075715428571 232.5324859 136.7756696428572C246.4199472428571 121.0437677428573 262.0146488142857 113.1779342571429 279.3170604714286 113.1779342571429C302.0833897714286 113.1779342571429 323.2557573142857 120.0177897285714 342.8348025142857 133.697704957143C353.7626398428572 141.9056536857144 366.7392524714285 154.6733821285715 381.7650305857143 172.0012763857144L381.7650305857143 376.5149878285715zM637.6117645857144 616.5963007285715L637.6117645857144 655.5838656714286L652.6908285857143 669.2744037571429C661.7617210285714 677.3611702000001 671.9886928857142 686.2494741142857 683.3718585571429 695.9394135571429C707.5041688 718.2832759142857 730.2701569428572 741.3107865428572 751.6705053000001 765.0226400142857C794.0158797999999 811.5343524042858 832.4903995571428 861.4652944857144 867.0952208285713 914.8169642857144L902.6105169714286 914.8169642857144L902.6105169714286 654.8086728857143L1035.7928805714284 654.8086728857143L1035.7928805714284 616.5963007285715L902.6105169714286 616.5963007285715L902.6105169714286 195.2570150142857C902.6105169714286 175.6491369285716 905.5700960428572 159.2334846142858 911.4893420285714 146.0095657428573C920.5958741571428 125.4896929 935.6214255142856 115.2299107142858 956.5664496142856 115.2299107142858C974.7795118285713 115.2299107142858 990.0327253142856 121.7277735142858 1002.3265435857144 134.7236931857143C1014.6203618571428 147.7196128571428 1026.9139942285715 165.6172334142857 1039.2078124999998 188.4170921285716L1072.6741494857142 172.0012763857144C1056.2823924714285 133.6975129285716 1036.703643485714 102.4621741 1013.9373121428572 78.2943242714287C973.8685732285714 35.8865854285715 924.9216976999998 14.6830357142858 867.0952208285713 14.6830357142858C834.3117067999999 14.6830357142858 805.6265605142856 20.8389058428572 781.0389239714285 33.1508299571429C733.6849581285715 56.8626813857143 710.0083316857142 99.9537702428572 710.0083316857142 162.4253835285715L710.0083316857142 616.5963007285715L637.6117645857144 616.5963007285715zM573.7752959714286 195.2570150142857C573.7752959714286 175.6491369285716 576.734873 159.2334846142858 582.6541189857143 146.0095657428573C591.7606511142857 125.4896929 606.7862045142857 115.2299107142858 627.7312265714285 115.2299107142858C645.9442908285714 115.2299107142858 661.1975022714286 121.7277735142858 673.491320542857 134.7236931857143C685.7851388142856 147.7196128571428 698.0787732285713 165.6172334142857 710.3725914999999 188.4170921285716L743.8389284857142 172.0012763857144C727.4471714714285 133.6975129285716 707.8684204428571 102.4621741 685.102091142857 78.2943242714287C645.0333501857142 35.8865854285715 596.0864766999999 14.6830357142858 538.2599977857142 14.6830357142858C505.4764837571428 14.6830357142858 476.7913395142857 20.8389058428572 452.2037029714286 33.1508299571429C404.8497371285714 56.8626813857143 381.1731086428571 99.9537702428572 381.1731086428571 162.4253835285715L573.7752959714286 195.2570150142857zM1879.281179285714 195.2570150142857C1879.281179285714 175.6491369285716 1882.2407481428572 159.2334846142858 1888.1600084285712 146.0095657428573C1897.2665344285713 125.4896929 1912.292096 115.2299107142858 1933.2371017142857 115.2299107142858C1951.450174142857 115.2299107142858 1966.7033917142855 121.7277735142858 1978.9972038571425 134.7236931857143C1991.291016 147.7196128571428 2003.5846647142855 165.6172334142857 2015.8784768571427 188.4170921285716L2049.3448077142857 172.0012763857144C2032.9530445714283 133.6975129285716 2013.3743017142851 102.4621741 1990.607966285714 78.2943242714287C1950.539223285714 35.8865854285715 1901.5923661428567 14.6830357142858 1843.7658831428569 14.6830357142858C1810.9823568571423 14.6830357142858 1782.2972309999998 20.8389058428572 1757.7095862857143 33.1508299571429C1710.3556265714285 56.8626813857143 1686.6789939999999 99.9537702428572 1686.6789939999999 162.4253835285715L1879.281179285714 195.2570150142857zM963.9882354142856 616.5963007285715L963.9882354142856 655.5838656714286C976.2820536857142 666.9837950285714 991.5352651285714 680.4355088142858 1009.7483293857142 695.9394135571429C1033.8806396285713 718.2832759142857 1056.6466277714285 741.3107865428572 1078.0469761285713 765.0226400142857C1120.3923506285712 811.5343524042858 1158.866870385714 861.4652944857144 1193.4716916571426 914.8169642857144L1228.9869878 914.8169642857144L1228.9869878 654.8086728857143L1315.5441401142855 654.8086728857143L1315.5441401142855 616.5963007285715L1228.9869878 616.5963007285715L1228.9869878 195.2570150142857C1228.9869878 175.6491369285716 1231.9465668714286 159.2334846142858 1237.8658128571428 146.0095657428573C1246.9723449857142 125.4896929 1261.997896342857 115.2299107142858 1282.942920442857 115.2299107142858C1301.1559826571427 115.2299107142858 1316.4091961428571 121.7277735142858 1328.7030123714285 134.7236931857143C1340.996830642857 147.7196128571428 1353.290465057143 165.6172334142857 1365.5842833285712 188.4170921285716L1399.0506203142857 172.0012763857144C1382.6588633000001 133.6975129285716 1363.0801122714286 102.4621741 1340.3137829714285 78.2943242714287C1300.2450440571426 35.8865854285715 1251.2981685285715 14.6830357142858 1193.4716916571426 14.6830357142858C1160.6881755857141 14.6830357142858 1132.003031342857 20.8389058428572 1107.4153947999998 33.1508299571429C1060.0614289571427 56.8626813857143 1036.3848025142856 99.9537702428572 1036.3848025142856 162.4253835285715L1036.3848025142856 616.5963007285715L963.9882354142856 616.5963007285715zM1601.8976034285713 694.5714285714287C1681.1244245714286 694.5714285714287 1747.3734645714285 679.2957518285714 1800.646664142857 648.7439407428571C1853.4645517142856 617.7361333 1879.8730971428567 560.7373404285715 1879.8730971428567 477.7458543L1879.8730971428567 138.4856513857144C1879.8730971428567 128.4537131428573 1882.4911819999995 119.9038943142858 1887.7274538571428 112.8359375000001C1892.9637052857145 105.7679806857143 1898.7690354285712 102.2340564142859 1905.1436077142855 102.2340564142859C1910.6075151428568 102.2340564142859 1915.5022008571427 103.2600344285715 1919.8278078571427 105.3120211000002C1924.1534148571427 107.3640098142857 1929.9913285714283 93.1141129285716 1939.0978545714283 102.2340564142859C1945.1688787142857 108.314018057143 1952.5190991428572 105.1220537714287 1961.148495428571 92.658163557143C1933.828897 60.7383613571431 1916.5063672857143 45.9187504285715 1883.267529 33.1508299571429C1862.3225028571424 24.9428791857143 1829.1539184285712 60.1085975285715 1805.9322505714283 60.1085975285715C1764.4975307142856 60.1085975285715 1775.8176967142856 83.8804619714288 1756.6939798571427 108.0483118000001C1745.7661445714284 121.7282270285715 1714.1959937142856 131.1748397142858 1689.319877142857 110.4419642857143C1650.617113042857 71.6822044714287 1606.9064153999998 44.3227846285715 1558.1864686142858 28.3628835285715C1528.5902407285712 18.3309452857144 1499.4497763142856 13.3150507285715 1470.7642010285713 13.3150507285715C1432.5167673142857 13.3150507285715 1396.7741644999999 25.5127934285714 1363.5353241714286 49.9086424571429C1330.2964817999998 74.3044914857144 1313.6773118857143 112.2656861857144 1313.6773118857143 163.7933664714286C1313.6773118857143 226.7209781571429 1343.9560746857142 276.6519204428572 1404.5145114 313.5876907428573C1465.072950157143 350.5234630857143 1560.0071201 387.6866748857143 1689.319877142857 425.0784435857144L1689.319877142857 526.9933035714287C1689.319877142857 568.4890476571429 1680.5549577142856 599.1543966571429 1663.024894142857 618.9902739428571C1645.4948203571428 638.8261512285715 1614.4192452142856 648.7439407428571 1569.7972392142856 648.7439407428571C1544.7542763714284 648.7439407428571 1524.151057 644.0700409000001 1507.9869641571427 634.7220982142858C1491.8228692714285 625.3741555285715 1483.7409444 613.6324051 1483.7409444 599.4964914714286C1483.7409444 594.0245270142857 1484.6515826999998 589.4646226857144 1486.472889942857 585.8166457C1487.8388688428572 583.0806614285715 1489.7170676142855 580.2164633571429 1492.107520985714 577.2239983714286L1502.864565242857 564.6128835285715C1509.2391375285715 556.8609311571429 1514.3614853714284 548.3111123285714 1518.231759942857 538.9631696428571C1522.1020365571428 529.6152269571428 1524.0371452428572 519.6974374428571 1524.0371452428572 509.2095028428571C1524.0371452428572 482.7616671428572 1515.2722401142855 462.3560982857143 1497.7421663285713 447.9921875C1480.2120925428571 433.6282767142858 1459.8365332571427 426.4464285714287 1436.6148756142857 426.4464285714287C1409.7506075714284 426.4464285714287 1386.8707893857143 434.4262596142858 1367.9747366999998 450.3861607142858C1349.0786819714285 466.3460618142857 1339.630796585714 489.3735744857144 1339.630796585714 519.4693871714286C1339.630796585714 573.2770553714286 1364.9010436285714 615.9121519571429 1415.4422956142855 647.375955757143C1465.9835476 678.8397616 1528.1346958428571 694.5714285714287 1601.8976034285713 694.5714285714287zM1687.270911857143 376.5149878285715C1649.9341327857142 367.3950443428572 1617.151109042857 353.0313480571429 1588.9208600571426 333.4234699714285C1541.1115679142856 300.1356746142858 1517.2072813857142 257.7285731428572 1517.2072813857142 206.2008928571429C1517.2072813857142 175.6490817714287 1524.1509078714284 152.5075715428571 1538.0383692142855 136.7756696428572C1551.9258285142855 121.0437677428573 1567.5205321285712 113.1779342571429 1584.822941742857 113.1779342571429C1607.589271042857 113.1779342571429 1628.7616406285713 120.0177897285714 1648.3406837857142 133.697704957143C1659.2685292857143 141.9056536857144 1672.2451255714284 154.6733821285715 1687.270911857143 172.0012763857144L1687.270911857143 376.5149878285715zM2004.5864205714283 892.2452169242857C2004.5864205714283 922.3410306314286 2015.1726084285713 947.9904871171428 2036.345311 969.1943559257141C2057.517993142857 990.3982246321428 2083.1297221428567 1001 2113.181274285714 1001C2142.777514428571 1001 2168.1615874285712 990.3982246321428 2189.334269571428 969.1943559257141C2210.5069517142856 947.9904871171428 2221.0931395714283 922.3410306314286 2221.0931395714283 892.2452169242857C2221.0931395714283 862.1494030128572 2210.5069517142856 836.4999465271428 2189.334269571428 815.2960777185715C2168.1615874285712 794.0922091142858 2142.777514428571 783.4904342571429 2113.181274285714 783.4904342571429C2083.1297221428567 783.4904342571429 2057.517993142857 794.0922091142858 2036.345311 815.2960777185715C2015.1726084285713 836.4999465271428 2004.5864205714283 862.1494030128572 2004.5864205714283 892.2452169242857zM1943.1176458571429 66.666454957143C1967.7052905714283 70.7704283000002 1984.5521205714283 76.9262984285715 1993.6586465714283 85.1342471571429C2007.3184355714288 97.4461712714286 2014.1482381428568 119.5617034857144 2014.1482381428568 151.4815056857143L2014.1482381428568 563.2448985428572C2014.1482381428568 591.5167237571429 2009.367380428571 610.782315 1999.805522 621.0422504000001C1990.2436635714284 631.3021878428572 1971.3478887142855 638.9400262142858 1943.1176458571429 643.9559943142857L1943.1176458571429 678.1556128285715L2211.531322 678.1556128285715L2211.531322 146.0095657428573C2211.531322 115.457754657143 2216.0845237142858 95.8501707428571 2225.191070142857 87.1862236142858C2234.297596142857 78.5222785285714 2251.372082142857 71.6824230571428 2276.415038857143 66.666454957143L2276.415038857143 33.1508299571429L1919.8050504285711 33.1508299571429L1943.1176458571429 66.666454957143zM2269.4941248571427 66.666454957143C2294.992414 69.8584335428573 2313.7743404285716 76.8122865714286 2325.840496571428 87.5282203714286C2337.9066527142854 98.2441541714286 2343.9396388571427 119.5617034857144 2343.9396388571427 151.4815056857143L2343.9396388571427 563.2448985428572C2343.9396388571427 591.5167237571429 2339.044953142857 611.1243076714286 2329.2554387142854 622.0682406714286C2319.4659038571426 633.0121716285714 2299.5456769999996 640.3080173285714 2269.4941248571427 643.9559943142857L2269.4941248571427 678.1556128285715L2534.492879285714 678.1556128285715L2534.492879285714 577.6087378285715C2556.8038822857143 611.3525275 2585.147524142857 639.2819371714286 2619.5246832857138 661.3978003285715C2653.9018424285714 683.5136634857143 2692.034876142857 694.5714285714287 2733.9249284285715 694.5714285714287C2794.0280327142855 694.5714285714287 2840.584481428571 679.0677567142857 2873.595663714286 648.0599492714286C2906.6068255714285 617.0521418285715 2923.1121715714285 562.5612952142858 2923.1121715714285 484.5857771857143L2923.1121715714285 146.0095657428573C2923.1121715714285 114.5457619428572 2928.462189714285 94.2541906428572 2939.162348571428 85.1342471571429C2949.8625278571426 76.0143036714287 2967.7338302857142 69.8584335428573 2992.776787 66.666454957143L2992.776787 33.1508299571429L2664.2602925714286 33.1508299571429L2664.2602925714286 66.666454957143C2689.3032697142853 71.6824230571428 2706.3777557142853 78.5222785285714 2715.4842817142853 87.1862236142858C2724.590828142857 95.8501707428571 2729.1440094285713 115.457754657143 2729.1440094285713 146.0095657428573L2729.1440094285713 485.2697707C2729.1440094285713 517.1895729 2725.9567845714287 541.1290660285715 2719.5822122857144 557.0889671285714C2708.654377 585.8167887 2687.0266688571423 600.1804849857143 2654.6984954285713 600.1804849857143C2630.5661831428565 600.1804849857143 2608.369335 591.4026710428572 2588.1073177142857 573.8467796285714C2567.84528 556.2908882142858 2552.250578428571 538.6212627714286 2541.3227431428572 520.8373721571429L2541.3227431428572 146.0095657428573C2541.3227431428572 115.457754657143 2545.8759244285716 95.8501707428571 2554.9824708571427 87.1862236142858C2564.088996857143 78.5222785285714 2581.1634828571428 71.6824230571428 2606.20646 66.666454957143L2606.20646 33.1508299571429L2269.4941248571427 33.1508299571429L2269.4941248571427 66.666454957143z" />
    <glyph glyph-name="menu-icon"
      unicode="&#xE010;"
      horiz-adv-x="1601.6" d="M0 812.1446666666667L188.8553333333333 1001L800.8 377.7106666666666L1412.7446666666667 1001L1601.6 812.1446666666667L800.8 0z" />
    <glyph glyph-name="newsletter-icon"
      unicode="&#xE011;"
      horiz-adv-x="611.7222222222223" d="" />
    <glyph glyph-name="scroll-arrow"
      unicode="&#xE012;"
      horiz-adv-x="635.25" d="M231 924H404.25V750.75H231V924zM231 635.25H404.25V462H231V635.25zM317.625 38.5L57.75 346.5H577.5L317.625 38.5z" />
    <glyph glyph-name="sterling"
      unicode="&#xE013;"
      horiz-adv-x="1001" d="M0 500.5A500.49999999999994 500.49999999999994 0 0 1 1001 500.5A500.49999999999994 500.49999999999994 0 0 1 0 500.5M473.9553 483.91525L476.4123 409.31345C476.4123 374.5014 470.06505 346.8100999999999 457.37055 326.23955H682.5L682.1906 273H365.2285V326.23955H388.878035C397.06849 328.2734000000001 403.722865 336.6363 408.8420700000001 351.3282500000001C413.96082 366.25225 416.724945 384.5614500000001 417.1344450000001 406.26495V408.9767500000001L414.677445 483.91525H364V537.1548H413.14182L410.377695 625.3165100000001C410.377695 670.302815 422.8679 706.246905 447.84831 733.14787C473.03165 760.0492899999999 506.10105 773.5 547.05105 773.5C585.9581 773.5 616.7707 761.5189399999999 639.5024999999999 737.5563649999999C662.2297500000001 713.59379 673.5911 681.605925 673.5911 641.5932250000001H614.92795C614.92795 665.781935 608.37595 684.883745 595.2719500000001 698.8995649999999C582.3727 712.915385 564.55945 719.923295 541.8322000000001 719.923295C520.33345 719.923295 502.9297 711.220055 489.6164 693.81312C476.30765 676.4066399999999 469.65555 653.574285 469.65555 625.3165100000001L472.4174 537.1548H570.3970999999999V483.91525H473.9553z" />
    <glyph glyph-name="telephone-icon"
      unicode="&#xE014;"
      horiz-adv-x="1001" d="M-166.8333333333333 1167.8333333333333H1167.8333333333335V-166.8333333333335H-166.8333333333333zM201.3122222222222 567.7894444444445C281.3922222222223 410.41 410.4100000000001 281.9483333333333 567.7894444444445 201.3122222222222L690.1338888888889 323.6566666666667C705.1488888888889 338.6716666666666 727.3933333333334 343.6766666666666 746.8572222222223 337.0033333333334C809.1416666666668 316.4272222222222 876.4311111111111 305.305 945.388888888889 305.305C975.9750000000003 305.305 1001 280.28 1001 249.6938888888889V55.6111111111111C1001 25.0249999999999 975.9750000000003 0 945.388888888889 0C423.2005555555555 0 0 423.2005555555555 0 945.388888888889C0 975.975 25.025 1001 55.6111111111111 1001H250.25C280.8361111111111 1001 305.8611111111112 975.975 305.8611111111112 945.388888888889C305.8611111111112 875.875 316.9833333333334 809.1416666666667 337.5594444444445 746.8572222222222C343.6766666666668 727.3933333333333 339.2277777777778 705.7049999999999 323.6566666666667 690.1338888888888z" />
    <glyph glyph-name="twitter-icon"
      unicode="&#xE015;"
      horiz-adv-x="1001" d="M1001 810.935125C964.1715416666668 794.5854583333332 924.5903333333334 783.5744583333333 883.0488333333334 778.6111666666666C925.4662083333334 804.0115416666666 958.0404166666668 844.2600833333333 973.347375 892.2246666666666C933.68275 868.7011666666666 889.7221666666668 851.60075 842.9254166666667 842.3832083333333C805.5130416666668 882.2980833333332 752.0846666666667 907.2396666666666 693.0256666666667 907.2396666666666C560.434875 907.2396666666666 463.0042083333333 783.53275 492.9507916666666 655.1127916666667C322.322 663.663 171.0041666666666 745.4113333333332 69.694625 869.6604583333333C15.890875 777.3599166666665 41.79175 656.6142916666665 133.2164166666667 595.469875C99.5995 596.5542916666666 67.9011666666666 605.7718333333332 40.2485416666666 621.1622083333332C37.9962916666666 526.0255 106.1894166666666 437.0199166666665 204.95475 417.2084583333333C176.050875 409.3672916666666 144.39425 407.532125 112.1954166666666 413.7049583333334C138.3048333333333 332.1234583333334 214.1305833333333 272.7724999999999 304.0537499999999 271.1041666666667C217.7175 203.4115416666666 108.9421666666666 173.173 -1e-13 186.0191666666667C90.8824583333333 127.7526250000001 198.8653333333333 93.7603333333333 314.8145 93.7603333333333C696.1120833333333 93.7603333333333 911.5356249999998 415.7903750000001 898.5226250000001 704.6205833333333C938.6460416666666 733.6078750000001 973.4725 769.7690000000001 1001 810.9351250000001z" />
  </font>
</defs>
</svg>
